The Final Destination 4 (2009) DVDRip XviD-MAX (BEST QUALITY) 
http://torrents.thepiratebay.org/5184750/The_Final_Destination_4_(2009)_DVDRip_XviD-MAX.5184750.TPB.torrent

The Final Destination 4 (2009) TS XviD-MAX


Format                           : AVI
Format/Info                      : Audio Video Interleave
File size                        : 720 MiB
Duration                         : 2h 32mn
Overall bit rate                 : 661 Kbps
Writing application              : Lavf52.13.0
Original source form             : MAX TORRENTZ
Copyright                        : SIGISMUNT

Video
Format                           : xvid
Codec ID                         : xvid
Duration                         : 1h 16mn
Bit rate                         : 1 150 Kbps
Width                            : 640 pixels
Height                           : 480 pixels
Display aspect ratio             : 4/3
Frame rate                       : 25.000 fps
Resolution                       : 24 bits
Bits/(Pixel*Frame)               : 0.150
Stream size                      : 626 MiB (87%)

Audio
Format                           : MPEG Audio
Format version                   : Version 2
Format profile                   : Layer 3
Codec ID                         : 55
Codec ID/Hint                    : MP3
Duration                         : 2h 32mn
Bit rate mode                    : Constant
Bit rate                         : 160 Kbps
Channel(s)                       : 2 channels
Sampling rate                    : 22.05 KHz
Resolution                       : 16 bits
Stream size                      : 87.2 MiB (12%)
Alignment                        : Aligned on interleaves
Interleave, duration             : 26 ms (0.65 video frame)
Writing library                  : LAME3.98 (beta)


ScreenCaps: 
http://www.postimg.com/image/7000/6392.jpg


